<?xml version="1.0" encoding="utf-8"?>
<!-- Generator: Adobe Illustrator 18.1.1, SVG Export Plug-In . SVG Version: 6.00 Build 0)  -->
<svg version="1.1" id="Layer_1" xmlns="http://www.w3.org/2000/svg" xmlns:xlink="http://www.w3.org/1999/xlink" x="0px" y="0px"
	 viewBox="0 0 100 100" enable-background="new 0 0 100 100" xml:space="preserve">
<g>
	<path fill="#F5F7FA" d="M90.3,96H10.7c-3.6,0-6.5-2.9-6.5-6.5V10.1c0-3.6,2.9-6.5,6.5-6.5h86.1v85.9C96.8,93.1,93.9,96,90.3,96z"/>
	<g>
		<g>
			<path fill="#1465E7" d="M78.5,83.8L78.5,83.8c-3.4,0-6.1-2.7-6.1-6.1l0-49.8L22.6,28c-3.4,0-6.1-2.7-6.1-6.1v-0.1
				c0-3.4,2.7-6.1,6.1-6.1h62v62C84.6,81.1,81.9,83.8,78.5,83.8z"/>
			<path fill="#1465E7" d="M54.4,83.6L54.4,83.6c-3.4,0-6.1-2.7-6.1-6.1l0-19.7c0-3.4-2.7-6.1-6.1-6.1l-19.6,0.1
				c-3.4,0-6.1-2.7-6.1-6.1v0c0-3.4,2.7-6.1,6.1-6.1h37.9v37.9C60.5,80.9,57.8,83.6,54.4,83.6z"/>
			<path fill="#1465E7" d="M47.2,44.2L36.4,55L18.3,73c-2.4,2.4-2.4,6.2,0,8.6l0,0c2.4,2.4,6.3,2.4,8.6,0l18.8-18.9l0,0l10.5-10.6
				c1.9-2.4,1.7-5.8-0.5-8.1l0,0C53.4,41.8,49.5,41.8,47.2,44.2z"/>
		</g>
	</g>
</g>
</svg>
