<?xml version="1.0" encoding="utf-8"?>
<!-- Generator: Adobe Illustrator 18.1.1, SVG Export Plug-In . SVG Version: 6.00 Build 0)  -->
<svg version="1.1" id="Layer_1" xmlns="http://www.w3.org/2000/svg" xmlns:xlink="http://www.w3.org/1999/xlink" x="0px" y="0px"
	 viewBox="0 0 380 65" enable-background="new 0 0 380 65" xml:space="preserve">
<g>
	<path fill="#1465E7" d="M89.5,46.5c2.5,0,4.4-0.4,5.6-1.3c1.2-0.9,1.7-2.1,1.7-3.6c0-0.9-0.2-1.7-0.6-2.4c-0.4-0.7-1-1.3-1.7-1.8
		c-0.7-0.5-1.6-1-2.7-1.5c-1-0.5-2.2-0.9-3.6-1.4c-1.3-0.5-2.6-1-3.9-1.6c-1.3-0.6-2.4-1.3-3.3-2.2c-1-0.9-1.7-1.9-2.3-3.1
		c-0.6-1.2-0.9-2.6-0.9-4.3c0-3.5,1.2-6.3,3.6-8.3c2.4-2,5.7-3,9.9-3c2.4,0,4.6,0.3,6.5,0.8c1.9,0.5,3.4,1.1,4.5,1.8l-2.2,5.7
		c-1.3-0.7-2.7-1.3-4.2-1.6c-1.5-0.4-3.1-0.6-4.7-0.6c-1.9,0-3.4,0.4-4.5,1.2c-1.1,0.8-1.6,1.9-1.6,3.3c0,0.9,0.2,1.6,0.5,2.2
		c0.4,0.6,0.9,1.2,1.5,1.7c0.7,0.5,1.4,0.9,2.3,1.3c0.9,0.4,1.8,0.8,2.9,1.2c1.8,0.7,3.5,1.4,4.9,2c1.4,0.7,2.7,1.5,3.6,2.5
		c1,1,1.7,2.1,2.3,3.4c0.5,1.3,0.8,2.9,0.8,4.7c0,3.5-1.2,6.2-3.7,8.2c-2.5,1.9-6.1,2.9-10.9,2.9c-1.6,0-3.1-0.1-4.4-0.3
		c-1.3-0.2-2.5-0.5-3.5-0.8c-1-0.3-1.9-0.6-2.7-0.9c-0.7-0.3-1.3-0.6-1.8-0.9l2.1-5.8c1,0.6,2.4,1.1,4.1,1.7
		C85,46.2,87.1,46.5,89.5,46.5z"/>
	<path fill="#1465E7" d="M127.6,33.3c-0.9,3.3-1.8,6.5-2.8,9.6c-1,3.1-2,6.1-2.9,8.8h-5.6c-0.7-1.7-1.5-3.7-2.4-5.9
		c-0.8-2.2-1.6-4.6-2.5-7.1c-0.8-2.5-1.6-5.1-2.5-7.9c-0.8-2.8-1.6-5.6-2.4-8.5h7.2c0.3,1.6,0.7,3.3,1.2,5.1
		c0.5,1.8,0.9,3.7,1.4,5.6c0.5,1.9,1,3.7,1.5,5.5c0.5,1.8,1.1,3.4,1.6,4.9c0.6-1.7,1.1-3.5,1.7-5.3c0.5-1.8,1.1-3.7,1.5-5.5
		c0.5-1.8,0.9-3.6,1.4-5.4c0.4-1.7,0.8-3.4,1.2-4.9h5.2c0.3,1.5,0.7,3.2,1.1,4.9c0.4,1.7,0.8,3.5,1.3,5.4c0.5,1.8,1,3.7,1.5,5.5
		s1.1,3.6,1.7,5.3c0.5-1.5,1-3.1,1.5-4.9c0.5-1.8,1-3.6,1.5-5.5c0.5-1.9,1-3.7,1.4-5.6c0.5-1.8,0.8-3.5,1.2-5.1h7
		c-0.8,2.9-1.6,5.7-2.4,8.5c-0.8,2.8-1.6,5.4-2.5,7.9c-0.8,2.5-1.6,4.9-2.5,7.1c-0.8,2.2-1.6,4.2-2.4,5.9h-5.5c-1-2.8-2-5.7-3-8.8
		C129.4,39.8,128.4,36.6,127.6,33.3z"/>
	<path fill="#1465E7" d="M161.4,13.9c0,1.3-0.4,2.3-1.2,3c-0.8,0.7-1.8,1.1-2.9,1.1c-1.2,0-2.1-0.4-3-1.1c-0.8-0.7-1.2-1.8-1.2-3
		c0-1.3,0.4-2.3,1.2-3.1c0.8-0.7,1.8-1.1,3-1.1c1.1,0,2.1,0.4,2.9,1.1C160.9,11.5,161.4,12.6,161.4,13.9z M160.6,51.8h-6.8V22.4h6.8
		V51.8z"/>
	<path fill="#1465E7" d="M181.2,8.3c1.6,0,3,0.1,4.1,0.4c1.2,0.3,2.1,0.5,2.7,0.8l-1.3,5.6c-0.6-0.3-1.4-0.5-2.2-0.7
		c-0.8-0.2-1.7-0.3-2.7-0.3c-1.1,0-2,0.2-2.7,0.5c-0.7,0.3-1.3,0.8-1.8,1.3c-0.4,0.6-0.8,1.2-1,2c-0.2,0.8-0.3,1.7-0.3,2.6v2h10.7
		v5.7H176v23.7h-6.8V20.4c0-3.8,1-6.7,3-8.9C174.2,9.3,177.2,8.3,181.2,8.3z"/>
	<path fill="#1465E7" d="M191.3,14.7l6.8-1.1v8.9h10.4v5.7h-10.4V40c0,2.4,0.4,4,1.1,5c0.7,1,2,1.5,3.8,1.5c1.2,0,2.3-0.1,3.3-0.4
		c1-0.3,1.7-0.5,2.3-0.7l1.1,5.4c-0.8,0.3-1.8,0.7-3.1,1c-1.3,0.4-2.8,0.5-4.5,0.5c-2.1,0-3.8-0.3-5.2-0.8c-1.4-0.6-2.5-1.4-3.3-2.4
		c-0.8-1.1-1.4-2.4-1.7-3.9c-0.3-1.5-0.5-3.2-0.5-5.2V14.7z"/>
	<path fill="#1465E7" d="M242.3,51.8c-0.7-1.3-1.6-2.8-2.7-4.6c-1.1-1.8-2.3-3.6-3.6-5.6c-1.3-2-2.7-4-4.2-6.2
		c-1.4-2.1-2.9-4.2-4.3-6.2c-1.4-2-2.8-3.9-4.2-5.6c-1.4-1.8-2.6-3.3-3.7-4.5v32.7h-3.8V12.9h3c1.9,2.1,4,4.6,6.1,7.4
		c2.2,2.8,4.3,5.6,6.4,8.5c2.1,2.9,4,5.7,5.9,8.5c1.8,2.8,3.3,5.2,4.5,7.2V12.9h3.8v38.9H242.3z"/>
	<path fill="#1465E7" d="M280.1,37.3c0,2.3-0.3,4.4-1,6.2s-1.6,3.5-2.7,4.8c-1.2,1.3-2.6,2.3-4.2,3.1c-1.6,0.7-3.4,1.1-5.3,1.1
		s-3.7-0.4-5.3-1.1c-1.6-0.7-3-1.7-4.2-3.1c-1.2-1.3-2.1-2.9-2.7-4.8c-0.7-1.9-1-3.9-1-6.2c0-2.3,0.3-4.4,1-6.2
		c0.7-1.9,1.6-3.5,2.7-4.8c1.2-1.3,2.6-2.4,4.2-3.1c1.6-0.7,3.4-1.1,5.3-1.1s3.7,0.4,5.3,1.1c1.6,0.7,3,1.8,4.2,3.1
		c1.2,1.3,2.1,2.9,2.7,4.8C279.8,32.9,280.1,35,280.1,37.3z M276.2,37.3c0-3.6-0.8-6.5-2.5-8.7c-1.7-2.1-4-3.2-6.8-3.2
		s-5.2,1.1-6.8,3.2c-1.7,2.1-2.5,5-2.5,8.7c0,3.6,0.8,6.5,2.5,8.6c1.7,2.1,4,3.2,6.8,3.2s5.2-1.1,6.8-3.2
		C275.4,43.8,276.2,40.9,276.2,37.3z"/>
	<path fill="#1465E7" d="M291.4,22.8H303v3.1h-11.5v15.4c0,1.6,0.1,3,0.4,4c0.3,1,0.7,1.8,1.2,2.4s1.2,0.9,1.9,1.1
		c0.7,0.2,1.6,0.3,2.5,0.3c1.5,0,2.8-0.2,3.7-0.5c0.9-0.4,1.7-0.7,2.2-1l0.9,3c-0.5,0.3-1.4,0.7-2.7,1.1c-1.3,0.4-2.7,0.6-4.3,0.6
		c-1.8,0-3.3-0.2-4.5-0.7c-1.2-0.5-2.2-1.2-2.9-2.1c-0.7-1-1.2-2.1-1.5-3.6c-0.3-1.4-0.4-3.1-0.4-5V14.3l3.6-0.7V22.8z"/>
	<path fill="#1465E7" d="M314.2,14c0,0.9-0.3,1.5-0.8,2c-0.5,0.5-1.2,0.8-1.9,0.8s-1.4-0.3-1.9-0.8c-0.5-0.5-0.8-1.2-0.8-2
		c0-0.9,0.3-1.5,0.8-2c0.5-0.5,1.2-0.8,1.9-0.8s1.4,0.3,1.9,0.8C313.9,12.5,314.2,13.2,314.2,14z M313.3,51.8h-3.6v-29h3.6V51.8z"/>
	<path fill="#1465E7" d="M347.7,37.3c0,2.3-0.3,4.4-1,6.2s-1.6,3.5-2.7,4.8c-1.2,1.3-2.6,2.3-4.2,3.1c-1.6,0.7-3.4,1.1-5.3,1.1
		s-3.7-0.4-5.3-1.1c-1.6-0.7-3-1.7-4.2-3.1c-1.2-1.3-2.1-2.9-2.7-4.8c-0.7-1.9-1-3.9-1-6.2c0-2.3,0.3-4.4,1-6.2
		c0.7-1.9,1.6-3.5,2.7-4.8c1.2-1.3,2.6-2.4,4.2-3.1c1.6-0.7,3.4-1.1,5.3-1.1s3.7,0.4,5.3,1.1c1.6,0.7,3,1.8,4.2,3.1
		c1.2,1.3,2.1,2.9,2.7,4.8C347.4,32.9,347.7,35,347.7,37.3z M343.8,37.3c0-3.6-0.8-6.5-2.5-8.7c-1.7-2.1-4-3.2-6.8-3.2
		s-5.2,1.1-6.8,3.2c-1.7,2.1-2.5,5-2.5,8.7c0,3.6,0.8,6.5,2.5,8.6c1.7,2.1,4,3.2,6.8,3.2s5.2-1.1,6.8-3.2
		C343,43.8,343.8,40.9,343.8,37.3z"/>
	<path fill="#1465E7" d="M355.6,23.8c1.1-0.3,2.5-0.6,4.4-1c1.8-0.4,4.1-0.6,6.7-0.6c2.2,0,4,0.3,5.5,1c1.5,0.6,2.7,1.5,3.5,2.7
		c0.9,1.2,1.5,2.6,1.9,4.2c0.4,1.6,0.6,3.5,0.6,5.4v16.2h-3.6v-15c0-2.1-0.1-3.8-0.4-5.2c-0.3-1.4-0.7-2.6-1.4-3.5
		c-0.7-0.9-1.5-1.5-2.6-1.9s-2.4-0.6-4-0.6c-1.7,0-3.2,0.1-4.5,0.3c-1.3,0.2-2.1,0.4-2.4,0.5v25.5h-3.6V23.8z"/>
</g>
<g>
	<g>
		<path fill="#1465E7" d="M58.8,64L58.8,64c-3,0-5.5-2.5-5.5-5.5l0-44.8L8.5,13.8c-3,0-5.5-2.5-5.5-5.5v0c0-3,2.5-5.5,5.5-5.5h55.8
			v55.8C64.3,61.5,61.8,64,58.8,64z"/>
		<path fill="#1465E7" d="M37.2,63.8L37.2,63.8c-3,0-5.5-2.5-5.5-5.5l0-17.7c0-3-2.5-5.5-5.5-5.5L8.6,35.2c-3,0-5.5-2.5-5.5-5.5v0
			c0-3,2.5-5.5,5.5-5.5h34.1v34.1C42.6,61.3,40.2,63.8,37.2,63.8z"/>
		<path fill="#1465E7" d="M30.6,28.3L20.9,38L4.7,54.3c-2.1,2.1-2.1,5.6,0,7.8l0,0c2.1,2.1,5.6,2.1,7.8,0l16.9-17l0,0l9.5-9.5
			c1.7-2.2,1.6-5.3-0.4-7.2l0,0C36.3,26.2,32.8,26.2,30.6,28.3z"/>
	</g>
</g>
</svg>
