<?xml version="1.0" encoding="utf-8"?>
<!-- Generator: Adobe Illustrator 18.1.1, SVG Export Plug-In . SVG Version: 6.00 Build 0)  -->
<svg version="1.1" id="Layer_1" xmlns="http://www.w3.org/2000/svg" xmlns:xlink="http://www.w3.org/1999/xlink" x="0px" y="0px"
	 viewBox="0 0 212 212" enable-background="new 0 0 212 212" xml:space="preserve">
<path fill="#F06A32" d="M177.5,199H34.6C22.1,199,12,188.9,12,176.4V33.9c0-12.5,10.1-22.6,22.6-22.6h142.9
	c12.5,0,22.6,10.1,22.6,22.6v142.5C200.1,188.9,190,199,177.5,199z"/>
<g>
	<g>
		<path fill="#FFFFFF" d="M106,43.1H84.2c-21.6,0-39,17.5-39,39v45.3c0,21.6,17.5,39,39,39h44.5c21.6,0,39-17.5,39-39V96.7
			c0-4-3.2-7.2-7.2-7.2h-8.1c-3.7,0-6.6-3-6.6-6.6v0C145.8,60.9,128,43.1,106,43.1z"/>
	</g>
	<path fill="#F06A32" d="M106.3,89.7H83.7c-3.9,0-7.1-3.2-7.1-7.1v0c0-3.9,3.2-7.1,7.1-7.1h22.6c3.9,0,7.1,3.2,7.1,7.1v0
		C113.5,86.5,110.3,89.7,106.3,89.7z"/>
	<path fill="#F06A32" d="M128.6,134.4H84c-3.9,0-7.1-3.2-7.1-7.1v0c0-3.9,3.2-7.1,7.1-7.1h44.6c3.9,0,7.1,3.2,7.1,7.1v0
		C135.7,131.2,132.6,134.4,128.6,134.4z"/>
</g>
</svg>
