<?xml version="1.0" encoding="utf-8"?>
<!-- Generator: Adobe Illustrator 18.1.1, SVG Export Plug-In . SVG Version: 6.00 Build 0)  -->
<svg version="1.1" id="Layer_1" xmlns="http://www.w3.org/2000/svg" xmlns:xlink="http://www.w3.org/1999/xlink" x="0px" y="0px"
	 viewBox="0 0 212 212" enable-background="new 0 0 212 212" xml:space="preserve">
<path fill="#353535" d="M177.5,199H34.6C22.1,199,12,188.9,12,176.4V33.9c0-12.5,10.1-22.6,22.6-22.6h142.9
	c12.5,0,22.6,10.1,22.6,22.6v142.5C200.1,188.9,190,199,177.5,199z"/>
<g>
	<polygon fill-rule="evenodd" clip-rule="evenodd" fill="#FFFFFF" points="115,63.9 135.2,82.9 138,80 117.8,61 	"/>
	<path fill-rule="evenodd" clip-rule="evenodd" fill="#FFFFFF" d="M154,59.1l-15.1-14.2c-0.7-0.6-1.6-1-2.7-1
		c-0.9,0-1.8,0.5-2.4,1.1l-8.2,8.1l20.4,19l8-8.1C155.4,62.5,155.3,60.3,154,59.1L154,59.1z"/>
	<path fill-rule="evenodd" clip-rule="evenodd" fill="#CECECE" d="M112.9,66.7L112.9,66.7l-52.2,56.2c-0.4,0.4-0.6,0.9-0.9,1.3
		l-6.2,21.4c0,0.4-0.2,0.9-0.2,1.3l0,0c0,0.9,0.5,1.7,1.1,2.3c0.9,0.6,1.8,0.8,2.7,0.8c0.4,0,0.7,0,1.1-0.2l21.3-8.1
		c0.7-0.2,1.1-0.5,1.5-0.9l52.2-56L112.9,66.7z"/>
	<polygon fill-rule="evenodd" clip-rule="evenodd" fill="#CECECE" points="120.4,58.6 140.6,77.6 143.5,74.8 123.2,55.7 	"/>
	<path fill-rule="evenodd" clip-rule="evenodd" fill="#FFFFFF" d="M52,162.7L52,162.7c0-2.6,2.1-4.6,4.7-4.6h94.9
		c2.6,0,4.7,2.1,4.7,4.6l0,0c0,2.6-2.1,4.6-4.7,4.6H56.7C54.1,167.3,52,165.3,52,162.7z"/>
</g>
</svg>
