<?xml version="1.0" encoding="utf-8"?>
<!-- Generator: Adobe Illustrator 18.1.1, SVG Export Plug-In . SVG Version: 6.00 Build 0)  -->
<svg version="1.1" id="Layer_1" xmlns="http://www.w3.org/2000/svg" xmlns:xlink="http://www.w3.org/1999/xlink" x="0px" y="0px"
	 viewBox="0 0 212 212" enable-background="new 0 0 212 212" xml:space="preserve">
<g>
	<path fill="#4676ED" d="M183.4,204.7H29.3c-11.9,0-21.6-9.7-21.6-21.6V30.2c0-11.9,9.7-21.6,21.6-21.6h154.1
		c11.9,0,21.6,9.7,21.6,21.6v152.9C205,195,195.3,204.7,183.4,204.7z"/>
	<path fill="#FFFFFF" d="M94.8,204.7v-71.9h-25v-28.5h25V82.6c0-24.7,14.7-38.4,37.3-38.4c10.8,0,22.1,1.9,22.1,1.9v24.3h-12.4
		c-12.3,0-16.1,7.6-16.1,15.4v18.5H153l-4.4,28.5h-23v71.9H94.8z"/>
</g>
</svg>
