<?xml version="1.0" encoding="utf-8"?>
<!-- Generator: Adobe Illustrator 18.1.1, SVG Export Plug-In . SVG Version: 6.00 Build 0)  -->
<svg version="1.1" id="Layer_1" xmlns="http://www.w3.org/2000/svg" xmlns:xlink="http://www.w3.org/1999/xlink" x="0px" y="0px"
	 viewBox="0 0 212 212" enable-background="new 0 0 212 212" xml:space="preserve">
<path fill="#4467AD" d="M177.5,199H34.6C22.1,199,12,188.9,12,176.4V33.9c0-12.5,10.1-22.6,22.6-22.6h142.9
	c12.5,0,22.6,10.1,22.6,22.6v142.5C200.1,188.9,190,199,177.5,199z"/>
<g>
	<g>
		<g>
			<path fill="#FEFEFE" d="M112.4,93.8c1.6-1.8,3-3.7,4.6-5.2c5.1-4.8,11.2-7.2,18.2-7.2c3.9,0,7.7,0.3,11.4,1.4
				c8.5,2.5,13.5,8.4,15.9,16.7c1.8,6.3,2.1,12.7,2.1,19.1c0,13.6,0,27.2,0,40.8c0,1.3-0.4,1.6-1.6,1.6c-7-0.1-14-0.1-21,0
				c-1.2,0-1.5-0.4-1.5-1.5c0-12.9,0-25.9,0-38.8c0-3.2-0.2-6.5-1.1-9.6c-1.7-5.8-5.8-8.8-11.9-8.5c-8.3,0.4-12.6,4.6-13.7,13
				c-0.3,2-0.4,4-0.4,6.1c0,12.6,0,25.2,0,37.8c0,1.3-0.3,1.6-1.6,1.6c-7.1-0.1-14.1-0.1-21.2,0c-1.1,0-1.5-0.3-1.5-1.4
				c0-24.9,0-49.9,0-74.8c0-1.2,0.4-1.5,1.6-1.5c6.7,0,13.4,0.1,20.1,0c1.2,0,1.6,0.4,1.5,1.6C112.3,87.9,112.4,90.8,112.4,93.8z"/>
			<path fill="#FEFEFE" d="M74,122.3c0,12.3,0,24.7,0,37c0,1.4-0.3,1.8-1.8,1.8c-7-0.1-14-0.1-21,0c-1.1,0-1.5-0.3-1.5-1.4
				c0-25,0-49.9,0-74.9c0-1,0.2-1.4,1.3-1.4c7.1,0,14.2,0.1,21.3,0c1.4,0,1.6,0.5,1.5,1.7C73.9,97.4,74,109.9,74,122.3z"/>
			<path fill="#FEFEFE" d="M75.9,58.6c0,7.7-6.3,14.1-14,14.1c-7.6,0-14-6.3-14-13.9c0-7.7,6.3-14.1,14-14
				C69.6,44.7,75.9,50.9,75.9,58.6z"/>
		</g>
	</g>
</g>
</svg>
