<?xml version="1.0" encoding="utf-8"?>
<!-- Generator: Adobe Illustrator 18.1.1, SVG Export Plug-In . SVG Version: 6.00 Build 0)  -->
<svg version="1.1" id="Layer_1" xmlns="http://www.w3.org/2000/svg" xmlns:xlink="http://www.w3.org/1999/xlink" x="0px" y="0px"
	 viewBox="0 0 212 212" enable-background="new 0 0 212 212" xml:space="preserve">
<path fill="#C40027" d="M177.5,199H34.6C22.1,199,12,188.9,12,176.4V33.9c0-12.5,10.1-22.6,22.6-22.6h142.9
	c12.5,0,22.6,10.1,22.6,22.6v142.5C200.1,188.9,190,199,177.5,199z"/>
<g>
	<g>
		<path fill="#FFFFFF" d="M76.9,174.1c-0.9-0.5-1.4-1.4-1.5-2.4c-0.7-6.7-1.1-17.3,0.4-23.9c1.5-6.5,9.7-41.2,9.7-41.2
			s-2.5-5-2.5-12.3c0-11.5,6.7-20.1,15-20.1c7.1,0,10.5,5.3,10.5,11.7c0,7.1-4.5,17.8-6.9,27.7c-2,8.3,4.2,15,12.3,15
			c14.8,0,26.1-15.6,26.1-38c0-19.9-14.3-33.7-34.7-33.7c-23.6,0-37.5,17.7-37.5,36c0,7.1,2.7,14.8,6.1,18.9
			c0.7,0.8,0.8,1.6,0.5,2.4c-0.6,2.6-2,8.3-2.3,9.4c-0.3,1.5-1.2,1.8-2.8,1.1c-10.4-4.8-16.9-19.9-16.9-32.2
			c0-26.2,19-50.2,54.8-50.2c28.7,0,51.1,20.5,51.1,47.9c0,28.6-18,51.6-43,51.6c-8.4,0-16.3-4.4-19-9.6c0,0-4.2,15.8-5.2,19.7
			c-1.6,6.4-6.8,15.7-10.3,21.6c-0.7,1.2-2.2,1.6-3.4,0.9L76.9,174.1z"/>
	</g>
</g>
</svg>
