<?xml version="1.0" encoding="utf-8"?>
<!-- Generator: Adobe Illustrator 18.1.1, SVG Export Plug-In . SVG Version: 6.00 Build 0)  -->
<svg version="1.1" id="Layer_1" xmlns="http://www.w3.org/2000/svg" xmlns:xlink="http://www.w3.org/1999/xlink" x="0px" y="0px"
	 viewBox="0 0 212 212" enable-background="new 0 0 212 212" xml:space="preserve">
<path fill="#DC4711" d="M177.5,199H34.6C22.1,199,12,188.9,12,176.4V33.9c0-12.5,10.1-22.6,22.6-22.6h142.9
	c12.5,0,22.6,10.1,22.6,22.6v142.5C200.1,188.9,190,199,177.5,199z"/>
<g>
	<g>
		<path fill="#FFFFFF" d="M175.7,105.1c0-8.5-6.9-15.5-15.5-15.5c-4.2,0-7.9,1.7-10.7,4.3c-10.6-7.6-25.1-12.6-41.4-13.1l7-33.1
			l23,4.9c0.3,5.9,5.1,10.5,11,10.5c6.1,0,11-4.9,11-11s-4.9-11-11-11c-4.3,0-8.1,2.5-9.9,6.2l-25.7-5.5c-0.7-0.2-1.5,0-2.1,0.4
			c-0.6,0.4-1,1-1.2,1.7l-7.9,37c-16.5,0.5-31.3,5.4-42,13.1c-2.8-2.7-6.5-4.3-10.7-4.3c-8.5,0-15.5,6.9-15.5,15.5
			c0,6.3,3.8,11.7,9.1,14.1c-0.2,1.5-0.4,3.1-0.4,4.7c0,23.8,27.7,43.1,61.9,43.1c34.2,0,61.9-19.3,61.9-43.1c0-1.6-0.1-3.1-0.4-4.6
			C171.9,116.8,175.7,111.4,175.7,105.1z M69.6,116.1c0-6.1,5-11,11-11c6.1,0,11,5,11,11c0,6.1-5,11-11,11
			C74.6,127.2,69.6,122.2,69.6,116.1z M131.2,145.3c-7.5,7.5-22,8.1-26.2,8.1c-4.2,0-18.7-0.6-26.2-8.1c-1.1-1.1-1.1-2.9,0-4
			c1.1-1.1,2.9-1.1,4,0c4.8,4.8,14.9,6.4,22.2,6.4c7.3,0,17.4-1.7,22.2-6.4c1.1-1.1,2.9-1.1,4,0
			C132.3,142.4,132.3,144.2,131.2,145.3z M129.3,127.2c-6.1,0-11-5-11-11c0-6.1,5-11,11-11c6.1,0,11,5,11,11
			C140.3,122.2,135.4,127.2,129.3,127.2z"/>
	</g>
</g>
</svg>
