<?xml version="1.0" encoding="utf-8"?>
<!-- Generator: Adobe Illustrator 18.1.1, SVG Export Plug-In . SVG Version: 6.00 Build 0)  -->
<svg version="1.1" id="Layer_1" xmlns="http://www.w3.org/2000/svg" xmlns:xlink="http://www.w3.org/1999/xlink" x="0px" y="0px"
	 viewBox="0 0 212 212" enable-background="new 0 0 212 212" xml:space="preserve">
<path fill="#010201" d="M177.5,199H34.6C22.1,199,12,188.9,12,176.4V33.9c0-12.5,10.1-22.6,22.6-22.6h142.9
	c12.5,0,22.6,10.1,22.6,22.6v142.5C200.1,188.9,190,199,177.5,199z"/>
<g>
	<g>
		<g>
			<path fill="#FFFFFF" d="M79.2,138.8c0.1,0.1,0.2,0.2,0.3,0.3c1,0.7,1.7,1.7,2.6,2.4c2.9,2.3,6.2,3.6,9.9,3.8
				c8.9,0.5,16.6-6.1,17.6-14.9c0-0.4,0-0.9,0-1.3c0-26.5,0-52.9,0-79.4c0-1.8,0-1.8,1.8-1.8c4,0,8,0,12.1,0c0.4,0,0.8-0.1,1.1,0.2
				c0,0,0,0,0.1,0.1c0.2,0.2,0.2,0.5,0.3,0.7c1.5,7.1,5.3,12.8,11.2,17.1c0.4,0.3,0.7,0.6,1,0.9c0.3,0.2,0.5,0.4,0.8,0.7
				c0.9,0.5,1.6,1.4,2.4,2.1c3.3,2.7,6.9,4.6,11,5.6c0.4,0.1,0.8,0.1,1,0.4c0,0,0,0,0.1,0.1c0.2,0.3,0.2,0.6,0.2,0.9
				c0,4.7,0,9.3,0,14c0,1.1-0.1,1.1-1.2,1.1c-3.4,0-6.8-0.5-10.1-1.2c-5.7-1.3-11-3.6-15.9-6.8c-0.3-0.2-0.5-0.5-0.8-0.4
				c-0.3,0.2-0.2,0.6-0.2,0.9c0,13.1,0,26.3,0,39.4c-0.1,9.2-3,17.4-9,24.4c-6.4,7.4-14.5,11.7-24.2,12.9
				c-7.5,0.9-14.6-0.4-21.4-3.8c-1.1-0.5-2.1-1.2-3.1-1.9c-0.3-0.3-0.6-0.5-0.9-0.8c-2.3-1.9-3.9-4.4-5.5-7
				c-2.3-3.9-3.8-8.2-4.6-12.7c-0.4-2.6-0.6-5.2-0.5-7.8c0.5-8.4,3.3-15.9,8.7-22.4c4.5-5.4,10.2-9.2,16.9-11.5
				c2.8-1,5.7-1.5,8.6-1.8c0.5,0,1.1-0.2,1.6-0.1c0.3,0,0.5,0,0.8,0.2c0,0,0.1,0,0.1,0.1c0.2,0.3,0.1,0.6,0.1,0.8
				c0,4.7,0,9.5,0,14.2c0,0.2,0,0.3,0,0.5c0,0.5-0.3,0.6-0.7,0.5c-1.3-0.4-2.6-0.5-4-0.6c-2.1-0.1-4.1,0.2-6.1,0.9
				c-6.5,2.4-10.5,7.1-11.3,13.9c-0.8,6.8,1.9,12.2,7.5,16.1C78.3,138.2,78.7,138.5,79.2,138.8z"/>
			<path fill="#CB1C54" d="M66.9,155.3c0.3-0.1,0.4,0.1,0.6,0.2c4.2,2.6,8.8,4.3,13.7,5.1c2.5,0.4,4.9,0.6,7.4,0.4
				c8.3-0.4,15.8-3.2,22.2-8.5c6.2-5.1,10.3-11.6,12.4-19.4c0.7-2.5,1-5,1.1-7.5c0.1-1.5,0.1-2.9,0.1-4.4c0-12.5,0-25,0-37.5
				c0-0.3,0-0.6,0-0.9c0.3-0.1,0.5,0.2,0.7,0.3c4.5,3,9.3,5.3,14.5,6.7c2.9,0.8,5.8,1.3,8.7,1.6c1.2,0.1,2.5,0.1,3.7,0.2
				c0.5,0,0.6,0,0.6-0.5c0-0.6,0-1.2,0-1.8c0-4.2,0-8.5,0-12.7c0-0.3,0-0.5,0-0.8c1.1,0.1,2.2,0.4,3.3,0.5c0.7,0.1,1.4,0.1,2.1,0.1
				c0.3,0,0.5,0.1,0.4,0.5c0,0.1,0,0.3,0,0.4c0,6.1,0,12.2,0,18.4c0,0.1,0,0.2,0,0.4c0,0.5,0,0.5-0.6,0.5c-1.9,0-3.8-0.1-5.7-0.4
				c-3.9-0.5-7.6-1.5-11.3-2.9c-3.5-1.4-6.8-3.1-9.9-5.2c-0.2-0.1-0.4-0.3-0.7-0.4c0,0.4,0,0.6,0,0.9c0,13.4,0,26.7,0,40.1
				c0,7.1-1.9,13.7-5.7,19.8c-4.6,7.3-11,12.4-19.1,15.4c-4.9,1.8-10,2.5-15.2,2.1c-8.8-0.7-16.4-4-22.9-10
				C67.2,155.7,67.1,155.5,66.9,155.3z"/>
			<path fill="#6ABAC5" d="M124.7,48.2c-0.3,0-0.5,0-0.8,0c-4.3,0-8.6,0-12.9,0c-1,0-1,0-1,1c0,26.3,0,52.6,0,78.9
				c0,1.8-0.1,3.6-0.7,5.4c-2,6.2-6.2,10.2-12.5,11.7c-6.8,1.5-12.5-0.5-17.1-5.8c-0.1-0.1-0.1-0.2-0.2-0.3c1.3,0.5,2.6,1,4,1.3
				c4.4,0.9,8.6,0.2,12.4-2.2c4.4-2.7,7-6.7,8-11.8c0.2-1,0.2-1.9,0.2-2.9c0-26.4,0-52.7,0-79.1c0-1.2-0.2-1.1,1.1-1.1
				c6.1,0,12.2,0,18.2,0c0.1,0,0.3,0,0.4,0c0.6,0,0.6,0,0.6,0.6C124.4,45.4,124.4,46.8,124.7,48.2z"/>
			<path fill="#6ABAC5" d="M92.1,91.4c-3.7,0.1-7.3,0.7-10.9,1.9c-5.1,1.7-9.6,4.4-13.6,8c-5.2,4.8-8.7,10.6-10.7,17.3
				c-0.7,2.4-1.1,4.9-1.3,7.4c-0.1,1.5-0.1,3-0.1,4.5c0.2,4.2,1.1,8.2,2.7,12.1c1.8,4.3,4.3,8.2,7.5,11.6c0.1,0.1,0.1,0.2,0.2,0.2
				c-0.7-0.3-1.3-0.8-1.9-1.3c-6-4.8-10.3-10.8-12.6-18.2c-0.8-2.6-1.3-5.2-1.6-7.8c-0.2-1.9-0.2-3.9-0.1-5.8
				c0.3-4.4,1.3-8.7,3.2-12.8c1.9-4.3,4.5-8,7.9-11.3c3.9-3.8,8.4-6.6,13.5-8.5c3.2-1.2,6.5-1.9,9.9-2.1c2.5-0.2,4.9-0.1,7.4,0.2
				c0.3,0,0.5,0.1,0.5,0.5C92.1,88.7,92.1,90.1,92.1,91.4z"/>
			<path fill="#CB1C54" d="M79.2,138.8c-1.5-0.7-2.8-1.7-4-2.8c-3-2.8-4.7-6.3-5.2-10.4c-1-8.5,4.4-15.9,11.9-18.2
				c3.2-1,6.4-1,9.6-0.1c0.2,0,0.4,0.1,0.6,0.1c0.1-0.3,0.1-0.5,0.1-0.8c0-4.8,0-9.6,0-14.3c0-0.3,0-0.5,0-0.8
				c1.8-0.1,3.7,0,5.5,0.2c0.3,0,0.4,0.2,0.4,0.4c0,0.1,0,0.3,0,0.4c0,6.3,0,12.7,0,19c0,0.2,0.1,0.5-0.1,0.7
				c-0.8-0.2-1.7-0.4-2.5-0.5c-4.9-0.7-9.3,0.5-13.2,3.5c-3.4,2.7-5.5,6.2-6.2,10.5c-0.7,4.5,0.2,8.7,2.8,12.5
				C79,138.5,79.1,138.7,79.2,138.8z"/>
			<path fill="#CB1C54" d="M137.2,67c-1.8-1.1-3.5-2.5-4.9-4c-4-4.1-6.5-9-7.6-14.6c0,0,0-0.1,0-0.1c1.7-0.1,3.4,0,5.2,0
				c0.3,0,0.4,0.1,0.4,0.4c0,0.1,0,0.2,0,0.4c-0.1,4.8,1.3,9.2,3.7,13.4c0.8,1.5,1.8,2.8,2.9,4.1C137,66.7,137.2,66.8,137.2,67z"/>
			<path fill="#6ABAC5" d="M152.5,75.8c-4.9-1-9.2-3.3-13-6.6c-0.5-0.5-1.1-1-1.6-1.6c0.2,0,0.3,0.1,0.5,0.2c3,1.7,6.1,2.8,9.5,3.4
				c1.3,0.2,2.6,0.4,4,0.3c0.6,0,0.6,0,0.6,0.5C152.5,73.3,152.5,74.6,152.5,75.8z"/>
		</g>
	</g>
</g>
</svg>
