<?xml version="1.0" encoding="utf-8"?>
<!-- Generator: Adobe Illustrator 18.1.1, SVG Export Plug-In . SVG Version: 6.00 Build 0)  -->
<svg version="1.1" id="Layer_1" xmlns="http://www.w3.org/2000/svg" xmlns:xlink="http://www.w3.org/1999/xlink" x="0px" y="0px"
	 viewBox="0 0 212 212" enable-background="new 0 0 212 212" xml:space="preserve">
<path fill="#121F37" d="M177.5,199H34.6C22.1,199,12,188.9,12,176.4V33.9c0-12.5,10.1-22.6,22.6-22.6h142.9
	c12.5,0,22.6,10.1,22.6,22.6v142.5C200.1,188.9,190,199,177.5,199z"/>
<g>
	<g>
		<g>
			<path fill="#FFFFFF" d="M139.4,168.7h-21.1c-19,0-33.1-9.8-33.1-33.1V98.2H68V77.9C87,73,94.9,56.7,95.8,42.5h19.7v32.1h23v23.5
				h-23v32.6c0,9.8,4.9,13.1,12.8,13.1h11.1V168.7z"/>
		</g>
	</g>
</g>
</svg>
