<?xml version="1.0" encoding="utf-8"?>
<!-- Generator: Adobe Illustrator 18.1.1, SVG Export Plug-In . SVG Version: 6.00 Build 0)  -->
<svg version="1.1" id="Layer_1" xmlns="http://www.w3.org/2000/svg" xmlns:xlink="http://www.w3.org/1999/xlink" x="0px" y="0px"
	 viewBox="0 0 212 212" enable-background="new 0 0 212 212" xml:space="preserve">
<path fill="#5A99EC" d="M177.5,199H34.6C22.1,199,12,188.9,12,176.4V33.9c0-12.5,10.1-22.6,22.6-22.6h142.9
	c12.5,0,22.6,10.1,22.6,22.6v142.5C200.1,188.9,190,199,177.5,199z"/>
<g>
	<g>
		<g>
			<path fill="#FFFFFF" d="M83.7,160.5c50.3,0,77.9-41.7,77.9-77.9c0-1.2,0-2.4-0.1-3.5c5.3-3.9,10-8.7,13.7-14.2
				c-4.9,2.2-10.2,3.6-15.7,4.3c5.6-3.4,10-8.7,12-15.1c-5.3,3.1-11.1,5.4-17.4,6.6c-5-5.3-12.1-8.6-20-8.6
				c-15.1,0-27.4,12.3-27.4,27.4c0,2.1,0.2,4.2,0.7,6.2c-22.7-1.1-42.9-12-56.4-28.6c-2.4,4-3.7,8.7-3.7,13.8
				c0,9.5,4.8,17.9,12.2,22.8c-4.5-0.1-8.7-1.4-12.4-3.4c0,0.1,0,0.2,0,0.3c0,13.3,9.4,24.3,22,26.8c-2.3,0.6-4.7,1-7.2,1
				c-1.8,0-3.5-0.2-5.1-0.5c3.5,10.9,13.6,18.8,25.6,19c-9.4,7.3-21.2,11.7-34,11.7c-2.2,0-4.4-0.1-6.5-0.4
				C53.9,156,68.3,160.5,83.7,160.5"/>
		</g>
	</g>
</g>
</svg>
