<?xml version="1.0" encoding="utf-8"?>
<!-- Generator: Adobe Illustrator 18.1.1, SVG Export Plug-In . SVG Version: 6.00 Build 0)  -->
<svg version="1.1" id="Layer_1" xmlns="http://www.w3.org/2000/svg" xmlns:xlink="http://www.w3.org/1999/xlink" x="0px" y="0px"
	 viewBox="0 0 212 212" enable-background="new 0 0 212 212" xml:space="preserve">
<path d="M177.5,199H34.6C22.1,199,12,188.9,12,176.4V33.9c0-12.5,10.1-22.6,22.6-22.6h142.9c12.5,0,22.6,10.1,22.6,22.6v142.5
	C200.1,188.9,190,199,177.5,199z"/>
<g>
	<path fill="#F9C638" d="M154.1,53.8c-1.9,0-3.8,0-5.7,0c-4.5,0-8.7,3.4-11.9,6.2c-3.1,2.7-5.8,5.9-8.3,9.1
		c-0.9-2.5-2.1-4.9-3.3-7.2c-1.6-3.2-4.8-6.3-8.4-7c-1.8-0.4-3.8-0.2-5.7-0.2c-1.6,0-6.1,0-6.1,0s-4.5,0-6.1,0
		c-1.8,0-3.9-0.2-5.7,0.2c-3.6,0.7-6.8,3.8-8.4,7c-1.2,2.2-2.4,4.7-3.3,7.2c-2.5-3.2-5.2-6.4-8.3-9.1c-3.2-2.7-7.3-6.2-11.9-6.2
		c-1.9,0-3.8,0-5.7,0c-2.7,0-5.4,0-8.1,0c-2,0-6.4-0.5-5.3,2.7c0.3,0.8,1.1,1.5,1.6,2.1c0.6,0.7,1.1,1.5,1.6,2.3
		c0.8,1.3,1.6,2.6,2.3,3.9c1.8,3.1,3.3,6.5,5,9.6c3.9,7,8.1,13.8,13.1,20c3.7,4.6,8.2,9.2,13.8,11.5c-4.2,7.8-8.4,15.6-12.5,23.4
		c-3.6,6.7-7.2,13.4-11,20.1c-0.2,0.3-0.4,0.6-0.5,1c-0.5,0.9-1.2,2.3-1.2,3.3c0,2.2,3.2,2.2,4.7,2.2c1.6,0,3.3,0,5-0.1
		c2.9,0,5.7-0.1,8.6-0.1c1.7,0,3.4,0,5.1-0.1c4.3-0.4,8.2-2.6,10.8-6.1c0.8-1.1,8.5-13.8,11.7-18.9c1.2-1.9,4.9-7.7,4.9-7.7
		s3.7,5.8,4.9,7.7c3.1,5.1,10.8,17.8,11.7,18.9c2.5,3.5,6.5,5.7,10.8,6.1c1.7,0.2,3.4,0.1,5.1,0.1c2.9,0,5.7,0.1,8.6,0.1
		c1.7,0,3.3,0.1,5,0.1c1.5,0,4.7-0.1,4.7-2.2c0-1.1-0.7-2.4-1.2-3.3c-0.2-0.3-0.4-0.6-0.5-1c-3.8-6.6-7.4-13.3-11-20.1
		c-4.2-7.8-8.4-15.6-12.5-23.4c5.6-2.3,10-6.9,13.8-11.5c5-6.2,9.2-13,13.1-20c1.8-3.2,3.3-6.5,5.1-9.6c0.7-1.3,1.5-2.6,2.3-3.9
		c0.5-0.8,1.1-1.5,1.6-2.3c0.5-0.6,1.4-1.3,1.6-2.1c1-3.2-3.3-2.7-5.3-2.7C159.6,53.8,156.8,53.8,154.1,53.8L154.1,53.8z"/>
	<path fill="#2A2D2C" d="M114.2,71.7c0.3,0,0.6-0.1,0.9-0.1c0.4-0.1,0.8-0.2,1.2-0.3c1-0.4,1.7-0.9,2.1-1.2c0.4-0.3,0.6-0.6,0.7-0.8
		c-2.5,0-4.4,0-5.6-0.1c-0.3-0.1-0.6,0.8-0.7,2.6C112.7,71.9,113.5,71.8,114.2,71.7 M107.3,84L107.3,84L107.3,84L107.3,84L107.3,84z
		 M101.9,84L101.9,84L101.9,84z M101.5,83.5c0,0,0,0.1,0,0.1c0,0.1,0,0.1,0.1,0.1c0.1,0.1,0.2,0.2,0.4,0.3c0.7,0.5,1.6,0.8,2.7,0.8
		c1.1,0,1.9-0.3,2.7-0.8c0.1-0.1,0.3-0.2,0.4-0.3c0.1-0.1,0.1-0.2,0.1-0.3c-0.1-0.1-0.2-0.1-0.3,0c-0.1,0.1-0.2,0.2-0.4,0.3h0
		c-0.7,0.5-1.5,0.7-2.5,0.7c-1,0-1.8-0.3-2.5-0.7c0,0,0,0,0,0c-0.1-0.1-0.2-0.2-0.3-0.3C101.7,83.4,101.6,83.4,101.5,83.5
		C101.5,83.5,101.5,83.5,101.5,83.5L101.5,83.5z M112.5,81.8C112.5,81.8,112.5,81.7,112.5,81.8C112.5,81.7,112.5,81.8,112.5,81.8
		L112.5,81.8z M118.5,74.7c-0.3-0.6-0.6-1-1-1.3c-1.1-0.8-2.8-0.8-3.8,0.2c-0.5,0.5-0.8,1-1.1,1.6c-0.6,1.4-1,2.9-0.9,4.4
		c0,0.7,0.3,1.4,0.8,1.9c0.6,0.6,1.4,0.8,2.2,1c0.8,0.2,1.7,0.3,2.5-0.1c0.9-0.5,1.2-1.5,1.4-2.4c0.3-1.1,0.6-2.3,0.5-3.5
		C118.9,76,118.7,75.3,118.5,74.7L118.5,74.7z"/>
	<path fill="#FFFFFF" d="M115.7,77.6c0.6-0.2,1-0.3,1.2-0.3c-0.9,0.1-1.4-0.3-1.4-1.1l-0.2-1.6c-0.1,1-0.2,1.7-0.4,2.1
		c-0.2,0.2-0.3,0.4-0.4,0.4l-0.5,0.2c-0.2,0.1-0.4,0.1-0.6,0.1c1-0.1,1.5,0.2,1.6,0.7c0.1,0.8,0.2,1.3,0.3,1.5
		C115.2,78.3,115.4,77.7,115.7,77.6 M116.9,80l-0.1-1c0,0.6-0.1,1.1-0.2,1.3c-0.1,0.1-0.2,0.2-0.3,0.3l-0.3,0.1
		c-0.1,0-0.3,0.1-0.4,0.1c0.6-0.1,0.9,0.1,1,0.4c0.1,0.5,0.1,0.8,0.2,0.9c0-0.7,0.1-1.1,0.3-1.2c0.4-0.1,0.6-0.2,0.7-0.2
		C117.2,80.7,116.9,80.4,116.9,80"/>
	<path fill="#2A2D2C" d="M96.4,71.8c-0.2-1.8-0.4-2.6-0.7-2.6c-1.2,0.1-3.1,0.1-5.6,0.1c0.1,0.2,0.4,0.5,0.7,0.8
		c0.5,0.4,1.1,0.9,2.2,1.2c0.4,0.1,0.8,0.3,1.2,0.3c0.1,0,0.5,0.1,0.9,0.1C95.6,71.8,96.4,71.9,96.4,71.8 M96.6,81.8
		C96.6,81.8,96.6,81.7,96.6,81.8C96.6,81.7,96.6,81.8,96.6,81.8C96.6,81.8,96.6,81.8,96.6,81.8z M90.2,76.7
		c-0.1,1.2,0.2,2.3,0.5,3.5c0.2,0.9,0.6,1.9,1.4,2.4c0.7,0.4,1.7,0.3,2.5,0.1c0.8-0.2,1.6-0.4,2.2-1c0.5-0.5,0.7-1.2,0.8-1.9
		c0.1-1.5-0.3-3.1-0.9-4.4c-0.3-0.6-0.6-1.2-1.1-1.6c-1-1-2.7-1-3.8-0.2c-0.3,0.3-0.7,0.7-1,1.3C90.4,75.3,90.2,76,90.2,76.7
		L90.2,76.7z"/>
	<path fill="#FFFFFF" d="M93.5,77.6c-0.6-0.2-1-0.3-1.2-0.3c0.9,0.1,1.4-0.3,1.4-1.1l0.2-1.6c0,1,0.2,1.7,0.4,2.1
		c0.1,0.2,0.3,0.4,0.4,0.4l0.5,0.2c0.2,0.1,0.4,0.1,0.6,0.1c-1-0.1-1.5,0.2-1.6,0.7c-0.1,0.8-0.2,1.3-0.3,1.5
		C93.9,78.3,93.8,77.7,93.5,77.6 M92.3,80l0.1-1c0,0.6,0.1,1.1,0.2,1.3c0.1,0.1,0.2,0.2,0.3,0.3l0.3,0.1c0.1,0,0.3,0.1,0.4,0.1
		c-0.6-0.1-0.9,0.1-1,0.4c-0.1,0.5-0.1,0.8-0.2,0.9c0-0.7-0.1-1.1-0.3-1.2c-0.4-0.1-0.6-0.2-0.7-0.2C91.9,80.7,92.2,80.4,92.3,80
		 M55.7,150.5c-0.3,0.5-0.5,1-0.8,1.6c-0.2,0.6-0.4,1.1-0.4,1.6v0c0,0.4,0.2,0.7,0.4,1c0.3,0.2,0.6,0.4,1.1,0.6
		c0.9,0.3,2.1,0.3,2.8,0.3c0.2,0,0.3,0,0.5,0c1.5,0,3,0,4.4-0.1l8.6-0.1c0.3,0,0.6,0,0.9,0c0.4,0,0.7,0,1.1,0c1.1,0,2.1,0,3.1-0.1
		c4.2-0.4,8-2.5,10.5-5.9c0.2-0.3,0.8-1.3,1.7-2.7c0.9-1.4,2-3.3,3.2-5.2c2.4-3.9,5.1-8.4,6.7-10.9c1.2-1.9,4.9-7.7,4.9-7.7
		c0.1-0.1,0.2-0.2,0.4-0.2c0.1,0,0.3,0.1,0.4,0.2c0,0,3.7,5.8,4.9,7.7c2.3,3.8,7.3,11.9,9.9,16.2c0.9,1.4,1.5,2.4,1.7,2.7
		c2.5,3.4,6.3,5.5,10.5,5.9c1,0.1,2.1,0.1,3.1,0.1c0.4,0,0.7,0,1.1,0c0.3,0,0.6,0,0.9,0c2.9,0,5.7,0.1,8.6,0.1c1.5,0,3,0.1,4.4,0.1
		c0.2,0,0.3,0,0.5,0c0.6,0,1.4,0,2.1-0.1c0.7-0.1,1.4-0.4,1.8-0.7c0.3-0.2,0.4-0.5,0.4-1v0c0-0.4-0.2-1-0.4-1.6
		c-0.2-0.6-0.5-1.1-0.8-1.6c-0.2-0.3-0.4-0.6-0.5-1c-3.8-6.6-7.4-13.4-11-20.1c-4.2-7.8-8.4-15.6-12.5-23.4c-0.1-0.1-0.1-0.2,0-0.3
		c0-0.1,0.1-0.2,0.2-0.2c5.4-2.2,9.9-6.8,13.6-11.4c5-6.2,9.2-13,13-19.9c1.3-2.4,2.5-4.9,3.8-7.4c-2.5,3.9-6.1,7.8-10.8,11.6
		c-6.2,5-16.6,9.9-31.3,14.7c-14.2,4.6-24.6,10-31.2,16.2c-3.2,2.9-5.4,4.9-6.7,6c-0.3,0.3-1.7,1.8-4.2,4.5c-3,3.4-6.2,7.4-9.5,12.1
		c-1.3,1.8-2.3,3.3-3.2,4.6c-2.4,4.4-4.8,8.8-7.3,13.2C56,149.9,55.8,150.2,55.7,150.5"/>
	<path fill="#FFFFFF" d="M166.9,56.3c-0.1,0.2-0.3,0.5-0.6,0.8c-0.3,0.3-0.6,0.7-0.9,1.1l0,0c-0.6,0.7-1.2,1.5-1.7,2.4l0,0
		c-0.8,1.3-1.6,2.6-2.3,3.9c-1.8,3.2-3.3,6.5-5.1,9.6c-3.9,7-8,13.7-13,19.9c-3.7,4.6-8.1,9.1-13.5,11.3c-0.2,0.1-0.3,0.2-0.4,0.4
		c-0.1,0.2-0.1,0.4,0,0.6c4.2,7.8,8.4,15.6,12.5,23.4c3.6,6.7,7.2,13.5,11.1,20.1l0,0c0.2,0.3,0.4,0.6,0.5,0.9
		c0.3,0.5,0.5,1,0.8,1.5c0.2,0.5,0.4,1.1,0.4,1.4v0c0,0.3-0.1,0.5-0.3,0.7c-0.3,0.3-0.9,0.5-1.6,0.6c-0.7,0.1-1.5,0.1-2.1,0.1h-0.6
		c-1.5,0-2.9,0-4.4-0.1c-2.9,0-5.7-0.1-8.6-0.1c-0.3,0-0.5,0-0.8,0c-0.4,0-0.8,0-1.2,0c-1,0-2.1,0-3.1-0.1
		c-4.1-0.4-7.8-2.4-10.2-5.8c-0.1-0.1-0.3-0.4-0.6-0.9c-2.1-3.2-8.3-13.5-11-18c-1.2-2-4.9-7.7-4.9-7.7c-0.1-0.2-0.4-0.3-0.6-0.3
		c-0.3,0-0.5,0.1-0.6,0.3c0,0-3.7,5.8-4.9,7.7c-1.6,2.6-4.3,7-6.7,10.9c-1.2,2-2.3,3.8-3.2,5.2c-0.4,0.6-0.7,1.2-1.1,1.8
		c-0.3,0.5-0.5,0.8-0.6,0.9c-2.4,3.3-6.1,5.4-10.2,5.8c-1,0.1-2,0.1-3.1,0.1c-0.4,0-0.8,0-1.2,0c-0.3,0-0.5,0-0.8,0
		c-2.9,0-5.7,0.1-8.6,0.1c-1.5,0-2.9,0.1-4.4,0.1h-0.6c-0.8,0-1.9,0-2.7-0.3c-0.4-0.1-0.8-0.3-1-0.5c-0.2-0.2-0.3-0.4-0.3-0.7v0
		c0-0.4,0.1-0.9,0.4-1.4c0.2-0.5,0.5-1.1,0.8-1.5c0.2-0.3,0.3-0.6,0.5-0.9l0,0c3.8-6.6,7.4-13.4,11.1-20.1
		c4.2-7.8,8.4-15.6,12.5-23.4c0.1-0.2,0.1-0.4,0-0.6c-0.1-0.2-0.2-0.4-0.4-0.4c-5.4-2.2-9.8-6.7-13.5-11.3c-5-6.2-9.1-12.9-13-19.9
		c-1.7-3.1-3.2-6.4-5.1-9.6c-0.7-1.3-1.5-2.6-2.3-3.9l0,0c-0.5-0.8-1.1-1.6-1.7-2.4c-0.3-0.4-0.7-0.7-0.9-1.1
		c-0.3-0.3-0.5-0.6-0.6-0.8c-0.1-0.3-0.1-0.5-0.1-0.7c0-0.3,0.1-0.4,0.2-0.5c0.1-0.2,0.5-0.4,1-0.5c0.5-0.1,1.2-0.1,1.8-0.1
		c0.6,0,1.2,0,1.7,0h0.1c2.7,0,5.4,0,8.1,0c1.9,0,3.8,0,5.7,0h0c2.1,0,4.1,0.8,6,2c1.9,1.2,3.7,2.7,5.3,4c3,2.6,5.7,5.8,8.2,9
		c0.2,0.2,0.4,0.3,0.7,0.3c0.3,0,0.5-0.2,0.6-0.5c0.9-2.4,2.1-4.9,3.3-7.1l0,0c1.5-3,4.6-6,7.9-6.6c0.8-0.2,1.8-0.2,2.7-0.2
		c0.9,0,1.9,0,2.8,0c0.5,0,1.4,0,2.3,0c1.8,0,3.8,0,3.8,0c0,0,2,0,3.8,0c0.9,0,1.8,0,2.3,0c0.9,0,1.9,0,2.8,0c0.9,0,1.9,0,2.7,0.2
		c3.3,0.7,6.3,3.6,7.9,6.6l0,0c1.2,2.2,2.4,4.6,3.3,7.1c0.1,0.3,0.3,0.4,0.6,0.5c0.3,0,0.5-0.1,0.7-0.3c2.5-3.2,5.2-6.4,8.2-9
		c1.6-1.4,3.4-2.9,5.3-4c1.9-1.2,4-2,6-2h0c1.9,0,3.8,0,5.7,0c2.7,0,5.4,0,8.2,0h0.1c0.5,0,1.1,0,1.7,0c0.9,0,1.7,0.1,2.3,0.3
		c0.3,0.1,0.5,0.2,0.6,0.3c0.1,0.1,0.2,0.2,0.2,0.5C167,55.8,167,56,166.9,56.3L166.9,56.3z M168,54.2c-0.5-0.6-1.2-0.8-1.9-1
		c-0.7-0.1-1.4-0.2-2.1-0.2c-0.6,0-1.2,0-1.7,0h-0.1c-2.7,0-5.4,0-8.2,0c-1.9,0-3.8,0-5.7,0h0l0,0c-2.4,0-4.7,0.9-6.8,2.2
		c-2.1,1.2-3.9,2.8-5.5,4.2c-2.8,2.4-5.3,5.3-7.6,8.2c-0.8-2.1-1.9-4.2-2.9-6.1c-1.7-3.3-5-6.6-8.9-7.4c-1-0.2-2-0.3-3-0.3
		c-1,0-1.9,0-2.8,0c-0.5,0-1.4,0-2.3,0l-3.8,0l-3.8,0c-0.9,0-1.8,0-2.3,0c-0.9,0-1.8,0-2.8,0c-1,0-2,0-3,0.3c-3.9,0.8-7.2,4-8.9,7.4
		h0c-1,1.9-2.1,3.9-2.9,6c-2.3-2.9-4.7-5.8-7.6-8.2C71.9,58,70,56.5,68,55.2C65.9,54,63.6,53,61.2,53l0,0c-1.9,0-3.8,0-5.7,0
		c-2.7,0-5.4,0-8.1,0h-0.1c-0.4,0-1,0-1.7,0c-0.9,0-1.9,0-2.8,0.4c-0.4,0.2-0.9,0.4-1.2,0.8c-0.3,0.4-0.5,0.9-0.5,1.5
		c0,0.4,0.1,0.7,0.2,1.1c0.2,0.6,0.5,1,0.9,1.4c0.3,0.4,0.7,0.7,0.9,1c0.6,0.7,1.1,1.5,1.6,2.2l0,0c0.8,1.3,1.5,2.5,2.3,3.8
		c1.8,3.1,3.3,6.4,5,9.6c3.9,7,8.1,13.8,13.2,20.1c3.6,4.4,7.9,8.9,13.3,11.4c-4.1,7.6-8.1,15.1-12.2,22.7
		c-3.6,6.7-7.2,13.4-11,20.1l0,0c-0.2,0.3-0.4,0.6-0.6,1c-0.2,0.5-0.6,1-0.8,1.7c-0.3,0.6-0.5,1.3-0.5,2v0h0c0,0.7,0.3,1.4,0.8,1.8
		c0.7,0.6,1.6,0.9,2.4,1c0.9,0.1,1.7,0.1,2.3,0.1c0.2,0,0.4,0,0.6,0c1.5,0,2.9,0,4.4-0.1c2.9,0,5.7-0.1,8.6-0.1c0.3,0,0.5,0,0.8,0
		c0.4,0,0.8,0,1.2,0c1.1,0,2.1,0,3.2-0.1c4.5-0.4,8.6-2.7,11.3-6.4c0.1-0.2,0.3-0.5,0.6-1c2.1-3.3,8.3-13.5,11.1-18
		c0.6-1,1.8-2.9,2.9-4.6c0.5-0.8,1-1.6,1.4-2.1c0.4,0.6,0.8,1.3,1.4,2.1c1.1,1.7,2.3,3.6,2.9,4.6c2.2,3.7,4.5,7.3,6.7,10.9
		c1.2,2,2.4,3.8,3.2,5.2c0.4,0.7,0.8,1.3,1.1,1.8c0.3,0.5,0.5,0.8,0.6,1c2.7,3.7,6.8,6,11.3,6.4c1.1,0.1,2.2,0.1,3.2,0.1
		c0.4,0,0.8,0,1.2,0c0.3,0,0.5,0,0.8,0c2.9,0,5.7,0.1,8.6,0.1c1.5,0,2.9,0.1,4.4,0.1c0.2,0,0.4,0,0.6,0c0.8,0,2,0,3.1-0.3
		c0.6-0.2,1.1-0.4,1.6-0.8c0.5-0.4,0.8-1.1,0.8-1.8v0c0-0.7-0.2-1.4-0.5-2c-0.3-0.6-0.6-1.2-0.8-1.7c-0.2-0.3-0.4-0.7-0.6-1l0,0
		c-3.8-6.6-7.4-13.3-11-20.1c-4.1-7.6-8.1-15.1-12.2-22.7c5.4-2.5,9.7-6.9,13.3-11.4c5.1-6.3,9.3-13.1,13.2-20.1
		c1.8-3.2,3.3-6.5,5-9.6c0.7-1.3,1.5-2.6,2.3-3.8l0,0c0.5-0.8,1-1.5,1.6-2.2l0,0c0.2-0.3,0.5-0.6,0.9-1c0.3-0.4,0.7-0.8,0.9-1.4
		c0.1-0.4,0.2-0.8,0.2-1.1C168.5,55.1,168.3,54.5,168,54.2L168,54.2z"/>
</g>
</svg>
