<?xml version="1.0" encoding="utf-8"?>
<!-- Generator: Adobe Illustrator 18.1.1, SVG Export Plug-In . SVG Version: 6.00 Build 0)  -->
<svg version="1.1" id="Layer_1" xmlns="http://www.w3.org/2000/svg" xmlns:xlink="http://www.w3.org/1999/xlink" x="0px" y="0px"
	 viewBox="0 0 212 212" enable-background="new 0 0 212 212" xml:space="preserve">
<path fill="#21759B" d="M177.5,199H34.6C22.1,199,12,188.9,12,176.4V33.9c0-12.5,10.1-22.6,22.6-22.6h142.9
	c12.5,0,22.6,10.1,22.6,22.6v142.5C200.1,188.9,190,199,177.5,199z"/>
<g>
	<g>
		<ellipse fill="#FFFFFF" cx="105.3" cy="105.1" rx="61" ry="61.4"/>
	</g>
	<g transform="matrix(2.44844 0 0 2.44844 130 50.0049)">
		<path fill="#21759B" d="M-31.4,22.5c0,8.5,4.9,15.9,12,19.4l-10.2-28.1C-30.8,16.4-31.4,19.4-31.4,22.5z"/>
		<path fill="#21759B" d="M4.3,21.4c0-2.7-0.9-4.5-1.8-5.9c-1.1-1.8-2.1-3.3-2.1-5c0-2,1.5-3.8,3.6-3.8c0.1,0,0.2,0,0.3,0
			C0.5,3.1-4.5,1-10.1,1c-7.5,0-14,3.9-17.8,9.7c0.5,0,1,0,1.4,0c2.2,0,5.7-0.3,5.7-0.3c1.2-0.1,1.3,1.6,0.1,1.8
			c0,0-1.2,0.1-2.4,0.2l7.8,23.3l4.7-14.1l-3.3-9.2c-1.1-0.1-2.2-0.2-2.2-0.2c-1.2-0.1-1-1.8,0.1-1.8c0,0,3.5,0.3,5.6,0.3
			c2.2,0,5.7-0.3,5.7-0.3c1.2-0.1,1.3,1.6,0.1,1.8c0,0-1.2,0.1-2.4,0.2l7.7,23.1l2.1-7.2C3.6,25.4,4.3,23.3,4.3,21.4z"/>
		<path fill="#21759B" d="M-9.7,24.4l-6.4,18.8c1.9,0.6,3.9,0.9,6,0.9c2.5,0,4.9-0.4,7.1-1.2c-0.1-0.1-0.1-0.2-0.2-0.3L-9.7,24.4z"
			/>
		<path fill="#21759B" d="M8.6,12.2c0.1,0.7,0.1,1.4,0.1,2.2c0,2.2-0.4,4.6-1.6,7.7l-6.5,19C7,37.4,11.2,30.4,11.2,22.5
			C11.2,18.8,10.3,15.3,8.6,12.2z"/>
	</g>
</g>
</svg>
