<?xml version="1.0" encoding="utf-8"?>
<!-- Generator: Adobe Illustrator 18.1.1, SVG Export Plug-In . SVG Version: 6.00 Build 0)  -->
<svg version="1.1" id="Layer_1" xmlns="http://www.w3.org/2000/svg" xmlns:xlink="http://www.w3.org/1999/xlink" x="0px" y="0px"
	 viewBox="0 0 212 212" enable-background="new 0 0 212 212" xml:space="preserve">
<path fill="#DA0000" d="M177.5,199H34.6C22.1,199,12,188.9,12,176.4V33.9c0-12.5,10.1-22.6,22.6-22.6h142.9
	c12.5,0,22.6,10.1,22.6,22.6v142.5C200.1,188.9,190,199,177.5,199z"/>
<g>
	<path fill="#FFFFFF" d="M166.4,74.2c-1.4-5.4-5.7-9.7-11.1-11.1c-9.8-2.6-49.2-2.6-49.2-2.6s-39.4,0-49.2,2.6
		c-5.4,1.4-9.7,5.7-11.1,11.1C43,84.1,43,104.6,43,104.6s0,20.5,2.6,30.3c1.4,5.4,5.7,9.7,11.1,11.1c9.8,2.6,49.2,2.6,49.2,2.6
		s39.4,0,49.2-2.6c5.4-1.4,9.7-5.7,11.1-11.1c2.6-9.8,2.6-30.3,2.6-30.3S169,84.1,166.4,74.2z M93.4,117.5v-26c0-2.6,2.8-4.3,5.1-3
		l22.5,13c2.3,1.3,2.3,4.6,0,5.9l-22.5,13C96.2,121.8,93.4,120.2,93.4,117.5z"/>
</g>
</svg>
